<svg width="575" height="120" viewBox="0 0 575 120" fill="none" xmlns="http://www.w3.org/2000/svg">
<path fill-rule="evenodd" clip-rule="evenodd" d="M310.762 0H0.761963V120H22.2559L41.3314 29.8017H69.907L61.6784 69.4485H87.1122L95.3407 29.8017H123.916L104.841 120H310.762V0ZM76.2342 120L81.8758 93.0869H56.5917L50.8576 120H76.2342Z" fill="black"/>
<path d="M335.048 47V10.6364H341.333V25.5974H357.385V10.6364H363.671V47H357.385V31.4675H341.333V47H335.048ZM383.5 47.6753C379.829 47.6753 376.764 46.3247 374.305 43.6234C371.881 40.9221 370.668 37.5108 370.668 33.3896C370.668 29.2684 371.863 25.8571 374.253 23.1559C376.677 20.4546 379.707 19.1039 383.344 19.1039C386.946 19.1039 389.699 20.4372 391.604 23.1039H392.071V19.7792H398.201V40.6104C398.201 41.4069 398.617 41.8052 399.448 41.8052H400.642V47H396.019C394.876 47 393.959 46.671 393.266 46.013C392.608 45.355 392.227 44.5411 392.123 43.5714H391.655C389.959 46.3074 387.24 47.6753 383.5 47.6753ZM384.591 41.7532C386.842 41.7532 388.66 40.9567 390.045 39.3636C391.465 37.7706 392.175 35.7965 392.175 33.4416C392.175 30.8442 391.448 28.7836 389.993 27.2597C388.539 25.7359 386.72 24.974 384.539 24.974C382.322 24.974 380.487 25.7706 379.032 27.3636C377.612 28.9221 376.902 30.9481 376.902 33.4416C376.902 35.9697 377.63 37.9957 379.084 39.5195C380.539 41.0087 382.374 41.7532 384.591 41.7532ZM418.011 47.6753C414.34 47.6753 411.258 46.3247 408.764 43.6234C406.305 40.9221 405.076 37.5108 405.076 33.3896C405.076 29.303 406.253 25.9091 408.608 23.2078C410.998 20.4719 414.011 19.1039 417.647 19.1039C421.111 19.1039 423.898 20.4892 426.011 23.2597H426.479V8.03897H432.608V47H426.582V43.7792H426.115C424.002 46.3766 421.301 47.6753 418.011 47.6753ZM418.998 41.961C421.249 41.961 423.085 41.1472 424.504 39.5195C425.924 37.8571 426.634 35.8312 426.634 33.4416C426.634 30.8095 425.89 28.7316 424.401 27.2078C422.946 25.6494 421.128 24.8701 418.946 24.8701C416.73 24.8701 414.894 25.684 413.44 27.3117C411.985 28.9048 411.258 30.9481 411.258 33.4416C411.258 35.9697 412.002 38.0303 413.492 39.6234C414.981 41.1818 416.816 41.961 418.998 41.961ZM463.194 43.6234C460.492 46.3247 457.064 47.6753 452.908 47.6753C448.752 47.6753 445.323 46.3247 442.622 43.6234C439.921 40.8874 438.57 37.4762 438.57 33.3896C438.57 29.303 439.921 25.9091 442.622 23.2078C445.358 20.4719 448.804 19.1039 452.96 19.1039C457.116 19.1039 460.544 20.4719 463.246 23.2078C465.947 25.9091 467.298 29.303 467.298 33.3896C467.298 37.4762 465.93 40.8874 463.194 43.6234ZM452.908 41.8571C455.298 41.8571 457.254 41.0606 458.778 39.4675C460.302 37.8745 461.064 35.8485 461.064 33.3896C461.064 30.9654 460.302 28.9567 458.778 27.3636C457.254 25.7359 455.298 24.9221 452.908 24.9221C450.553 24.9221 448.614 25.7359 447.09 27.3636C445.566 28.9567 444.804 30.9654 444.804 33.3896C444.804 35.8485 445.566 37.8745 447.09 39.4675C448.614 41.0606 450.553 41.8571 452.908 41.8571ZM483.547 47.6753C480.638 47.6753 478.283 46.7229 476.483 44.8182C474.682 42.8788 473.781 40.4719 473.781 37.5974V19.7792H479.911V35.987C479.911 37.6494 480.431 39.0173 481.47 40.0909C482.543 41.1645 483.859 41.7013 485.418 41.7013C487.115 41.7013 488.517 41.1299 489.625 39.987C490.768 38.8442 491.34 37.4069 491.34 35.6753V19.7792H497.47V47H491.34V43.8831H490.872C489.418 46.4113 486.976 47.6753 483.547 47.6753ZM514.895 14.4805C514.168 15.2078 513.25 15.5714 512.142 15.5714C511.034 15.5714 510.099 15.2078 509.337 14.4805C508.61 13.7533 508.246 12.8355 508.246 11.7273C508.246 10.6537 508.61 9.75326 509.337 9.02599C510.099 8.29871 511.034 7.93508 512.142 7.93508C513.25 7.93508 514.168 8.29871 514.895 9.02599C515.657 9.75326 516.038 10.6537 516.038 11.7273C516.038 12.8355 515.657 13.7533 514.895 14.4805ZM509.025 47V25.1818H504.246V19.7792H515.155V47H509.025ZM524.08 47V19.7792H530.209V22.8961H530.677C532.131 20.368 534.573 19.1039 538.002 19.1039C540.911 19.1039 543.266 20.0736 545.067 22.013C546.867 23.9178 547.768 26.3074 547.768 29.1818V47H541.638V30.6364C541.638 28.974 541.101 27.6061 540.028 26.5325C538.989 25.4589 537.69 24.9221 536.131 24.9221C534.435 24.9221 533.015 25.4935 531.872 26.6364C530.764 27.7792 530.209 29.2165 530.209 30.9481V47H524.08ZM335.048 104V67.6364H341.333V98.1818H356.242V104H335.048ZM374.798 104.675C370.677 104.675 367.335 103.359 364.772 100.727C362.21 98.0606 360.928 94.632 360.928 90.4416C360.928 86.2511 362.244 82.8225 364.876 80.1559C367.543 77.4546 370.764 76.1039 374.539 76.1039C378.625 76.1039 381.863 77.4372 384.253 80.1039C386.677 82.7359 387.889 86.1126 387.889 90.2338V91.9481H367.266C367.301 94.2338 367.993 96.052 369.344 97.4026C370.694 98.7532 372.495 99.4286 374.746 99.4286C376.305 99.4286 377.707 99.0303 378.954 98.2338C380.236 97.4372 381.119 96.3117 381.604 94.8571L387.214 96.2078C386.348 98.9437 384.79 101.039 382.539 102.494C380.322 103.948 377.742 104.675 374.798 104.675ZM367.318 87.4805H381.655C381.517 85.6797 380.772 84.2251 379.422 83.1169C378.071 82.0087 376.443 81.4546 374.539 81.4546C372.634 81.4546 370.989 82.0433 369.604 83.2208C368.253 84.3983 367.491 85.8182 367.318 87.4805ZM394.364 104V76.7792H400.442V80.7792H400.857C401.446 79.5325 402.381 78.4416 403.662 77.5065C404.944 76.5714 406.398 76.1039 408.026 76.1039H410.052V82.2338H407.351C405.134 82.2338 403.437 82.9784 402.26 84.4675C401.082 85.9221 400.494 87.9481 400.494 90.5455V104H394.364ZM437.981 100.623C435.279 103.325 431.851 104.675 427.695 104.675C423.539 104.675 420.11 103.325 417.409 100.623C414.708 97.8874 413.357 94.4762 413.357 90.3896C413.357 86.303 414.708 82.9091 417.409 80.2078C420.145 77.4719 423.591 76.1039 427.747 76.1039C431.903 76.1039 435.331 77.4719 438.032 80.2078C440.734 82.9091 442.084 86.303 442.084 90.3896C442.084 94.4762 440.716 97.8874 437.981 100.623ZM427.695 98.8571C430.084 98.8571 432.041 98.0606 433.565 96.4675C435.089 94.8745 435.851 92.8485 435.851 90.3896C435.851 87.9654 435.089 85.9567 433.565 84.3636C432.041 82.7359 430.084 81.9221 427.695 81.9221C425.34 81.9221 423.4 82.7359 421.877 84.3636C420.353 85.9567 419.591 87.9654 419.591 90.3896C419.591 92.8485 420.353 94.8745 421.877 96.4675C423.4 98.0606 425.34 98.8571 427.695 98.8571ZM445.698 115.948V110.338H449.594C451.326 110.338 452.521 109.489 453.179 107.792L454.685 104H453.179L443.828 76.7792H450.425L456.815 98.1299H457.282L464.347 76.7792H470.997L458.218 110.597C456.832 114.164 453.958 115.948 449.594 115.948H445.698Z" fill="black"/>
</svg>
