<?xml version="1.0" standalone="no"?>
<!DOCTYPE svg PUBLIC "-//W3C//DTD SVG 20010904//EN"
 "http://www.w3.org/TR/2001/REC-SVG-20010904/DTD/svg10.dtd">
<svg version="1.0" xmlns="http://www.w3.org/2000/svg"
 width="271.000000pt" height="271.000000pt" viewBox="0 0 271.000000 271.000000"
 preserveAspectRatio="xMidYMid meet">
<metadata>
Created by potrace 1.14, written by Peter Selinger 2001-2017
</metadata>
<g transform="translate(0.000000,271.000000) scale(0.100000,-0.100000)"
fill="#000000" stroke="none">
<path d="M616 2063 c-3 -10 -14 -61 -25 -113 -11 -52 -37 -171 -56 -265 -20
-93 -39 -181 -41 -195 -5 -27 -233 -1102 -241 -1135 -2 -11 -7 -33 -9 -50 -3
-16 -18 -88 -34 -160 -16 -71 -25 -132 -20 -135 4 -3 151 -5 326 -5 l318 0 18
80 c9 44 31 145 48 225 37 175 60 279 67 303 4 16 26 17 287 17 155 0 285 -3
288 -6 3 -3 2 -20 -3 -37 -4 -18 -11 -48 -14 -67 -3 -19 -15 -75 -26 -125 -44
-195 -79 -379 -73 -384 3 -3 149 -6 325 -6 276 0 320 2 324 15 4 13 55 255 85
400 13 62 15 74 40 186 12 55 24 110 26 124 3 14 23 111 45 215 22 105 62 296
90 425 27 129 58 276 69 325 11 50 31 144 44 211 14 66 28 132 31 147 l7 27
-328 -2 -329 -3 -22 -105 c-12 -58 -40 -195 -63 -305 -22 -110 -47 -229 -55
-265 -8 -36 -22 -102 -31 -147 l-17 -83 -289 0 c-323 0 -297 -7 -278 75 5 22
11 51 14 65 2 14 25 124 51 245 25 121 48 231 50 245 2 14 16 78 30 143 14 64
25 122 25 127 0 6 -116 10 -324 10 -301 0 -325 -1 -330 -17z"/>
</g>
</svg>
